{
  "accessors": [
    {
      "bufferView": 2,
      "componentType": 5126,
      "count": 85,
      "max": [
        0.025357000529766083,
        7.615623950958252,
        4.518425941467285
      ],
      "min": [
        0.0,
        -7.597372055053711,
        0.005588999949395657
      ],
      "type": "VEC3"
    },
    {
      "bufferView": 2,
      "byteOffset": 1020,
      "componentType": 5126,
      "count": 85,
      "max": [
        1.0,
        0.0,
        -0.0
      ],
      "min": [
        1.0,
        0.0,
        -0.0
      ],
      "type": "VEC3"
    },
    {
      "bufferView": 3,
      "componentType": 5126,
      "count": 85,
      "max": [
        0.0,
        0.4573383331298828,
        0.9160734415054321,
        1.0
      ],
      "min": [
        0.0,
        -0.45732542872428894,
        -1.0,
        1.0
      ],
      "type": "VEC4"
    },
    {
      "bufferView": 1,
      "componentType": 5126,
      "count": 85,
      "max": [
        0.9121500253677368,
        0.9967979788780212
      ],
      "min": [
        0.0014959999825805426,
        0.0015010000206530094
      ],
      "type": "VEC2"
    },
    {
      "bufferView": 0,
      "componentType": 5125,
      "count": 195,
      "type": "SCALAR"
    },
    {
      "bufferView": 2,
      "byteOffset": 2040,
      "componentType": 5126,
      "count": 1776,
      "max": [
        0.6012009978294373,
        5.982728958129883,
        6.089131832122803
      ],
      "min": [
        -0.6906020045280457,
        -5.540922164916992,
        -0.14170899987220764
      ],
      "type": "VEC3"
    },
    {
      "bufferView": 2,
      "byteOffset": 23352,
      "componentType": 5126,
      "count": 1776,
      "max": [
        1.0,
        1.0,
        1.0
      ],
      "min": [
        -1.0,
        -1.0,
        -1.0
      ],
      "type": "VEC3"
    },
    {
      "bufferView": 3,
      "byteOffset": 1360,
      "componentType": 5126,
      "count": 1776,
      "max": [
        1.0,
        1.0,
        1.0,
        1.0
      ],
      "min": [
        -1.0,
        -1.0,
        -1.0,
        1.0
      ],
      "type": "VEC4"
    },
    {
      "bufferView": 1,
      "byteOffset": 680,
      "componentType": 5126,
      "count": 1776,
      "max": [
        0.9984880089759827,
        0.9810810089111328
      ],
      "min": [
        0.0015069999499246478,
        0.0015069999499246478
      ],
      "type": "VEC2"
    },
    {
      "bufferView": 0,
      "byteOffset": 780,
      "componentType": 5125,
      "count": 3996,
      "type": "SCALAR"
    }
  ],
  "asset": {
    "extras": {
      "author": "Gnossiennes (https://sketchfab.com/Gnossiennes)",
      "license": "CC-BY-4.0 (http://creativecommons.org/licenses/by/4.0/)",
      "source": "https://sketchfab.com/3d-models/doors-dba95a0adfdd469bb2e9801f8376e6e5",
      "title": "Doors"
    },
    "generator": "Sketchfab-16.75.0",
    "version": "2.0"
  },
  "bufferViews": [
    {
      "buffer": 0,
      "byteLength": 16764,
      "name": "floatBufferViews",
      "target": 34963
    },
    {
      "buffer": 0,
      "byteLength": 14888,
      "byteOffset": 16764,
      "byteStride": 8,
      "name": "floatBufferViews",
      "target": 34962
    },
    {
      "buffer": 0,
      "byteLength": 44664,
      "byteOffset": 31652,
      "byteStride": 12,
      "name": "floatBufferViews",
      "target": 34962
    },
    {
      "buffer": 0,
      "byteLength": 29776,
      "byteOffset": 76316,
      "byteStride": 16,
      "name": "floatBufferViews",
      "target": 34962
    }
  ],
  "buffers": [
    {
      "byteLength": 106092,
      "uri": "scene.bin"
    }
  ],
  "extensionsUsed": [
    "KHR_materials_specular"
  ],
  "images": [
    {
      "uri": "textures/Doors_baseColor.png"
    },
    {
      "uri": "textures/Doors_metallicRoughness.png"
    },
    {
      "uri": "textures/Doors_normal.png"
    },
    {
      "uri": "textures/Doors_specularf0.png"
    },
    {
      "uri": "textures/walls_baseColor.png"
    },
    {
      "uri": "textures/walls_metallicRoughness.png"
    },
    {
      "uri": "textures/walls_normal.png"
    }
  ],
  "materials": [
    {
      "doubleSided": true,
      "extensions": {
        "KHR_materials_specular": {
          "specularColorFactor": [
            1.0,
            1.0,
            1.0
          ],
          "specularFactor": 0.35809632943643255,
          "specularTexture": {
            "index": 3
          }
        }
      },
      "name": "Doors",
      "normalTexture": {
        "index": 2
      },
      "occlusionTexture": {
        "index": 1
      },
      "pbrMetallicRoughness": {
        "baseColorTexture": {
          "index": 0
        },
        "metallicRoughnessTexture": {
          "index": 1
        }
      }
    },
    {
      "doubleSided": true,
      "name": "walls",
      "normalTexture": {
        "index": 6
      },
      "occlusionTexture": {
        "index": 5
      },
      "pbrMetallicRoughness": {
        "baseColorTexture": {
          "index": 4
        },
        "metallicRoughnessTexture": {
          "index": 5
        }
      }
    }
  ],
  "meshes": [
    {
      "name": "Object_0",
      "primitives": [
        {
          "attributes": {
            "NORMAL": 1,
            "POSITION": 0,
            "TANGENT": 2,
            "TEXCOORD_0": 3
          },
          "indices": 4,
          "material": 1,
          "mode": 4
        }
      ]
    },
    {
      "name": "Object_1",
      "primitives": [
        {
          "attributes": {
            "NORMAL": 6,
            "POSITION": 5,
            "TANGENT": 7,
            "TEXCOORD_0": 8
          },
          "indices": 9,
          "material": 0,
          "mode": 4
        }
      ]
    }
  ],
  "nodes": [
    {
      "children": [
        1
      ],
      "matrix": [
        1.0,
        0.0,
        0.0,
        0.0,
        0.0,
        2.220446049250313e-16,
        -1.0,
        0.0,
        0.0,
        1.0,
        2.220446049250313e-16,
        0.0,
        0.0,
        0.0,
        0.0,
        1.0
      ],
      "name": "Sketchfab_model"
    },
    {
      "children": [
        2,
        3
      ],
      "name": "f455be4010d742f3875514d6c5a1fd7a.obj.cleaner.materialmerger.gles"
    },
    {
      "mesh": 0,
      "name": "Object_2"
    },
    {
      "mesh": 1,
      "name": "Object_3"
    }
  ],
  "samplers": [
    {
      "magFilter": 9729,
      "minFilter": 9987,
      "wrapS": 10497,
      "wrapT": 10497
    }
  ],
  "scene": 0,
  "scenes": [
    {
      "name": "Sketchfab_Scene",
      "nodes": [
        0
      ]
    }
  ],
  "textures": [
    {
      "sampler": 0,
      "source": 0
    },
    {
      "sampler": 0,
      "source": 1
    },
    {
      "sampler": 0,
      "source": 2
    },
    {
      "sampler": 0,
      "source": 3
    },
    {
      "sampler": 0,
      "source": 4
    },
    {
      "sampler": 0,
      "source": 5
    },
    {
      "sampler": 0,
      "source": 6
    }
  ]
}
